<?xml version="1.0" encoding="utf-8"?>
<!-- Generator: Adobe Illustrator 14.0.0, SVG Export Plug-In . SVG Version: 6.00 Build 43363)  -->
<!DOCTYPE svg PUBLIC "-//W3C//DTD SVG 1.1//EN" "http://www.w3.org/Graphics/SVG/1.1/DTD/svg11.dtd" [
	<!ENTITY ns_extend "http://ns.adobe.com/Extensibility/1.0/">
	<!ENTITY ns_ai "http://ns.adobe.com/AdobeIllustrator/10.0/">
	<!ENTITY ns_graphs "http://ns.adobe.com/Graphs/1.0/">
	<!ENTITY ns_vars "http://ns.adobe.com/Variables/1.0/">
	<!ENTITY ns_imrep "http://ns.adobe.com/ImageReplacement/1.0/">
	<!ENTITY ns_sfw "http://ns.adobe.com/SaveForWeb/1.0/">
	<!ENTITY ns_custom "http://ns.adobe.com/GenericCustomNamespace/1.0/">
	<!ENTITY ns_adobe_xpath "http://ns.adobe.com/XPath/1.0/">
]>
<svg version="1.1" id="Layer_1" xmlns:x="&ns_extend;" xmlns:i="&ns_ai;" xmlns:graph="&ns_graphs;"
	 xmlns="http://www.w3.org/2000/svg" xmlns:xlink="http://www.w3.org/1999/xlink" x="0px" y="0px" width="99px" height="21px"
	 viewBox="0 0 99 21" enable-background="new 0 0 99 21" xml:space="preserve">
<metadata>
	<sfw  xmlns="&ns_sfw;">
		<slices></slices>
		<sliceSourceBounds  height="11.883" width="56.021" y="294.059" x="371.989" bottomLeftOrigin="true"></sliceSourceBounds>
	</sfw>
</metadata>
<g>
	<path opacity="0.65" fill="#FFFFFF" enable-background="new    " d="M57.818,5.867c-1.84,0.077-3.213,1.219-4.803,1.938
		C54.611,7.238,56.211,6.581,57.818,5.867z"/>
	<path fill="#FFD230" d="M75.585,11.16c-0.312-0.249-1.735-0.623-2.12-0.986l-4.302-1.562c-1.278-1.279-2.347-0.942-3.324-0.658
		c-9.266,2.688-26.595,2.759-40.176,1.697c-1.132,0-2.83,1.132-3.961,1.698c16.834,7.922,34.517,5.092,50.673,0.671
		c1.009,0,1.998,0.015,2.953,0.033c0.672,0.015,1.314,0.026,1.944,0.039c0-0.024,0-0.041,0.001-0.072
		C76.712,11.727,76.15,11.438,75.585,11.16z"/>
	<path fill="#FFB162" d="M34.676,6.088c-2.994,0.909-6.185,2.998-9.58,3.563c17.259,2.264,25.959,2.122,41.309-1.697
		c-2.264,0-4.527-1.698-6.791-1.698c2.322-0.356-20.935,0.713-21.855,0.41C36.58,6.537,35.36,6.479,34.676,6.088z"/>
	<path fill="#FF8165" d="M40.024,4.819c-1.912,0.306-4.176,0.871-5.873,1.437c1.914,0.821,23.27,0.731,25.463,0
		c-5.093-1.697-10.751-1.697-16.315-1.692C42.145,4.586,41.051,4.679,40.024,4.819z"/>
	<rect id="_x3C_Slice_x3E__1_" x="21.489" y="4.559" fill="none" width="56.021" height="11.883"/>
</g>
</svg>
