<?xml version="1.0" encoding="utf-8"?>
<!-- Generator: Adobe Illustrator 14.0.0, SVG Export Plug-In . SVG Version: 6.00 Build 43363)  -->
<!DOCTYPE svg PUBLIC "-//W3C//DTD SVG 1.1//EN" "http://www.w3.org/Graphics/SVG/1.1/DTD/svg11.dtd" [
	<!ENTITY ns_extend "http://ns.adobe.com/Extensibility/1.0/">
	<!ENTITY ns_ai "http://ns.adobe.com/AdobeIllustrator/10.0/">
	<!ENTITY ns_graphs "http://ns.adobe.com/Graphs/1.0/">
	<!ENTITY ns_vars "http://ns.adobe.com/Variables/1.0/">
	<!ENTITY ns_imrep "http://ns.adobe.com/ImageReplacement/1.0/">
	<!ENTITY ns_sfw "http://ns.adobe.com/SaveForWeb/1.0/">
	<!ENTITY ns_custom "http://ns.adobe.com/GenericCustomNamespace/1.0/">
	<!ENTITY ns_adobe_xpath "http://ns.adobe.com/XPath/1.0/">
]>
<svg version="1.1" id="Layer_1" xmlns:x="&ns_extend;" xmlns:i="&ns_ai;" xmlns:graph="&ns_graphs;"
	 xmlns="http://www.w3.org/2000/svg" xmlns:xlink="http://www.w3.org/1999/xlink" x="0px" y="0px" width="100px" height="25px"
	 viewBox="0 0 100 25" enable-background="new 0 0 100 25" xml:space="preserve">
<metadata>
	<sfw  xmlns="&ns_sfw;">
		<slices></slices>
		<sliceSourceBounds  height="18.948" width="78.098" y="290.526" x="360.951" bottomLeftOrigin="true"></sliceSourceBounds>
	</sfw>
</metadata>
<g>
	<path opacity="0.65" fill="#FFFFFF" enable-background="new    " d="M61.784,5.609c-2.583-0.062-4.507,1.436-6.733,2.34
		C57.287,7.261,59.531,6.468,61.784,5.609z"/>
	<path fill="#FFD230" d="M86.688,14.199c-2.708-1.323-5.495-2.452-7.433-3.192c0.003-0.003,0.006-0.004,0.009-0.007
		c-0.144-0.051-0.29-0.104-0.436-0.156c-0.053-0.02-0.114-0.044-0.165-0.063c0,0.001-0.001,0.002-0.002,0.003
		c-1.477-1.001-3.415-1.639-5.352-1.585c-16.803,10.923-37.482,5.107-56.395,2.743c-1.872,0.702-3.719,1.524-5.541,2.425
		c0,0-0.002,0-0.003,0c-0.185,0.092-0.229-0.002-0.414,0.091l-0.006,0.295c0.972,0.27,1.938,0.545,2.914,0.806
		c19.379,9.733,42.643,7.147,62.711,0.489c1.869-0.269,3.742-0.495,5.624-0.654c1.409,0.008,2.792,0.03,4.13,0.056
		c0.938,0.019,1.836,0.037,2.718,0.055c0-0.036,0-0.059,0.001-0.101C88.265,14.99,87.479,14.586,86.688,14.199z"/>
	<path fill="#FFB162" d="M28.923,6.531c-3.432,0.666-9.93,4.312-12.515,5.604c18.887,11.331,45.193,3.708,57.448-2.931
		c-1.421,0.284-4.437-2.653-9.595-2.653c-10.339,0-20.678,3.877-31.1,0.666C31.519,7.14,29.876,7.02,28.923,6.531z"/>
	<path fill="#FF8165" d="M36.88,3.714c-2.99,0.253-5.574,0.898-8.159,2.838c12.601,2.988,23.909,2.585,35.541,0
		C57.154,3.32,49.4,2.675,41.45,3.179C39.839,3.262,38.313,3.45,36.88,3.714z"/>
</g>
</svg>
