<?xml version="1.0" encoding="utf-8"?>
<!-- Generator: Adobe Illustrator 14.0.0, SVG Export Plug-In . SVG Version: 6.00 Build 43363)  -->
<!DOCTYPE svg PUBLIC "-//W3C//DTD SVG 1.1//EN" "http://www.w3.org/Graphics/SVG/1.1/DTD/svg11.dtd" [
	<!ENTITY ns_extend "http://ns.adobe.com/Extensibility/1.0/">
	<!ENTITY ns_ai "http://ns.adobe.com/AdobeIllustrator/10.0/">
	<!ENTITY ns_graphs "http://ns.adobe.com/Graphs/1.0/">
	<!ENTITY ns_vars "http://ns.adobe.com/Variables/1.0/">
	<!ENTITY ns_imrep "http://ns.adobe.com/ImageReplacement/1.0/">
	<!ENTITY ns_sfw "http://ns.adobe.com/SaveForWeb/1.0/">
	<!ENTITY ns_custom "http://ns.adobe.com/GenericCustomNamespace/1.0/">
	<!ENTITY ns_adobe_xpath "http://ns.adobe.com/XPath/1.0/">
]>
<svg version="1.1" id="Layer_1" xmlns:x="&ns_extend;" xmlns:i="&ns_ai;" xmlns:graph="&ns_graphs;"
	 xmlns="http://www.w3.org/2000/svg" xmlns:xlink="http://www.w3.org/1999/xlink" x="0px" y="0px" width="122px" height="34px"
	 viewBox="0 0 122 34" enable-background="new 0 0 122 34" xml:space="preserve">
<metadata>
	<sfw  xmlns="&ns_sfw;">
		<slices></slices>
		<sliceSourceBounds  height="29.276" width="107.895" y="285.362" x="346.052" bottomLeftOrigin="true"></sliceSourceBounds>
	</sfw>
</metadata>
<g>
	<path opacity="0.65" fill="#FFFFFF" enable-background="new    " d="M77.162,8.039c-3.602-0.549-6.279,1.237-9.381,2.17
		C70.895,9.584,74.023,8.846,77.162,8.039z"/>
	<path fill="#FFD230" d="M111.688,21.625c-3.742-1.828-7.594-3.387-10.268-4.409c0.004-0.003,0.008-0.005,0.01-0.008
		c-0.197-0.073-0.4-0.144-0.6-0.217c-0.074-0.028-0.158-0.061-0.229-0.087c0,0.001-0.004,0.002-0.004,0.002
		c-2.039-1.382-4.717-2.275-7.396-2.275c-23.211,9.82-46.422,8.035-70.526,1.786c-1.786-0.893-4.464,1.786-7.39,1.989
		c-2.581,1.057-5.13,2.207-7.648,3.451c0,0-0.003,0-0.004,0c-0.256,0.127-0.317-0.004-0.571,0.125l-0.009,0.408
		c1.341,0.371,2.678,0.752,4.026,1.113c2.781,0.744,5.574,1.463,8.376,2.141c25.539,11.305,52.32,4.162,78.262-1.467
		c2.582-0.371,5.172-0.684,7.771-0.904c1.947,0.012,3.857,0.043,5.705,0.08c1.295,0.023,2.537,0.051,3.754,0.074
		c0-0.049,0-0.08,0-0.139C113.865,22.721,112.779,22.164,111.688,21.625z"/>
	<path fill="#FFB162" d="M31.737,9.072c-3.891,2.618-7.388,4.332-10.959,7.903c22.318,9.82,50.997,7.476,72.423-2.344
		c-6.248,0-10.713-5.356-16.068-5.356C66.42,8.383,54.814,12.846,43.374,9.344C40.731,8.611,34.351,10.12,31.737,9.072z"/>
	<path fill="#FF8165" d="M42.632,3.829c-2.995,0.09-9.554,3.753-11.339,5.539c13.391,6.25,34.581,3.11,48.865,0.432
		C71.23,5.335,58.385,1.241,48.916,2.641C46.699,2.876,44.6,3.291,42.632,3.829z"/>
</g>
</svg>
