<?xml version="1.0" encoding="utf-8"?>
<!-- Generator: Adobe Illustrator 14.0.0, SVG Export Plug-In  -->
<!DOCTYPE svg PUBLIC "-//W3C//DTD SVG 1.1//EN" "http://www.w3.org/Graphics/SVG/1.1/DTD/svg11.dtd" [
	<!ENTITY ns_flows "http://ns.adobe.com/Flows/1.0/">
]>
<svg version="1.1"
	 xmlns="http://www.w3.org/2000/svg" xmlns:xlink="http://www.w3.org/1999/xlink" xmlns:a="http://ns.adobe.com/AdobeSVGViewerExtensions/3.0/"
	 x="0px" y="0px" width="121px" height="55px" viewBox="0 0 121 55" enable-background="new -0.027 -0.243 121 55"
	 xml:space="preserve">
<defs>
</defs>
<path opacity="0.65" fill="#FFFFFF" d="M79.329,15.637c-3.356-0.879-6.356-2.879-10.092-2.378
	C72.598,14.028,75.961,14.824,79.329,15.637z"/>
<path fill="#FFD230" d="M117.205,39.498c-4.189-2.048-8.504-3.794-11.5-4.941c0.004-0.003,0.008-0.005,0.013-0.008
	c-0.222-0.082-0.451-0.162-0.674-0.244c-0.082-0.031-0.176-0.067-0.255-0.097c-0.001,0.001-0.003,0.002-0.004,0.003
	c-2.712-0.985-5.55-1.943-8.398-2.942c-6.412,1.489-11.412,2.489-17.412,1.489c-27-4-55-9-78.32,7c-0.001,0-0.004,0-0.005,0
	c-0.286,0.142-0.355-0.003-0.64,0.14L0,40.354c1.503,0.417,3,0.843,4.51,1.244c32.463,8.159,47.547,23.559,97.63,2.326
	c2.691-1.141,5.21-2.33,8.122-2.577c2.181,0.011,4.321,0.047,6.391,0.088c1.45,0.028,2.841,0.056,4.204,0.083
	c0-0.054,0.001-0.089,0.002-0.155C119.647,40.723,118.431,40.098,117.205,39.498z"/>
<path fill="#FFB162" d="M32.719,12.649c-5.746,4.108-17.6,15.392-21.6,21.392c20.524-2.052,48.854,11.518,69.188,2.571
	c5.593-2.461,10.018-3.938,16.845-5.076c-3-1-5.345-2.112-6.345-4.112c-10-18-32.833-15.667-48.912-15.678
	C38.834,12.038,35.773,12.375,32.719,12.649z"/>
<path fill="#FF8165" d="M42.973,3.924c-3.112,1.927-8.068,5.239-10.977,9.255c15-3,33.31-0.088,48.31,3.912
	c-7-9-18.531-20.108-30.167-16.333C47.602,1.49,45.264,2.488,42.973,3.924z"/>
</svg>
