<?xml version="1.0" encoding="utf-8"?>
<!-- Generator: Adobe Illustrator 14.0.0, SVG Export Plug-In  -->
<!DOCTYPE svg PUBLIC "-//W3C//DTD SVG 1.1//EN" "http://www.w3.org/Graphics/SVG/1.1/DTD/svg11.dtd" [
	<!ENTITY ns_flows "http://ns.adobe.com/Flows/1.0/">
]>
<svg version="1.1"
	 xmlns="http://www.w3.org/2000/svg" xmlns:xlink="http://www.w3.org/1999/xlink" xmlns:a="http://ns.adobe.com/AdobeSVGViewerExtensions/3.0/"
	 x="0px" y="0px" width="121px" height="41px" viewBox="0 0 121 41" enable-background="new -0.027 -0.406 121 41"
	 xml:space="preserve">
<defs>
</defs>
<path opacity="0.65" fill="#FFFFFF" d="M79.073,10.546c-0.039-0.036-0.078-0.074-0.117-0.109c-3.387,0.171-6.771,0.34-10.148,0.478
	C72.224,10.812,75.646,10.68,79.073,10.546z"/>
<path fill="#FFD230" d="M117.205,30.335c-4.189-2.048-8.504-3.794-11.5-4.941c0.004-0.003,0.008-0.005,0.013-0.008
	c-0.222-0.082-0.451-0.162-0.674-0.244c-0.082-0.031-0.176-0.067-0.255-0.097c-0.001,0.001-0.003,0.002-0.004,0.003
	c-2.712-0.985-5.551-1.919-8.406-2.764c-11.219,3.555-34.574,8.942-70.561,1.5c-2.027-0.402-4.047-0.85-6.065-1.327
	c-0.338,0.399-0.56,0.636-0.654,0.666c-0.139,0.044-0.275,0.097-0.415,0.141c0.021,0.011-0.126,0.054-0.291,0.1c0,0,0,0-0.001,0
	c-0.004,0.001-0.007,0.002-0.012,0.004c-0.202,0.056-0.424,0.116-0.399,0.13c0.003,0.001,0.005,0.003,0.008,0.005
	c-5.905,1.933-11.695,4.304-17.334,7.091c-0.001,0-0.004,0-0.005,0c-0.286,0.142-0.355-0.003-0.64,0.14L0,31.191
	c1.503,0.417,3,0.843,4.51,1.247c3.116,0.834,6.244,1.638,9.384,2.398c2.924,0.781,5.867,1.456,8.825,2.03
	c2.994,0.811,5.989,1.454,8.985,1.949c2.997,0.496,5.995,0.844,9,1.074c23.643,2.756,46.271-5.729,69.558-7.707
	c2.181,0.011,4.321,0.047,6.391,0.088c1.45,0.028,2.841,0.056,4.204,0.083c0-0.054,0.001-0.089,0.002-0.155
	C119.647,31.56,118.431,30.935,117.205,30.335z"/>
<path fill="#FFB162" d="M32.346,9.405c-6.476,5.25-10.947,11.108-12.595,13.052c2.018,0.477,4.038,0.925,6.065,1.327
	c35.987,7.442,59.342,2.055,70.561-1.5c-2.955-0.874-5.927-1.65-8.793-2.279h0.003c-2.869-3.759-5.711-6.876-8.513-9.459
	c-3.428,0.134-6.849,0.266-10.265,0.369C56.551,11.415,44.367,11.461,32.346,9.405z"/>
<path fill="#FF8165" d="M40.619,3.899c-3.022,1.576-5.793,3.497-8.273,5.506c12.021,2.056,24.205,2.01,36.462,1.509
	c3.378-0.138,6.761-0.307,10.148-0.478c-1.877-1.721-3.738-3.208-5.575-4.462C61.045-2.449,49.708-0.839,40.619,3.899z"/>
</svg>
